<?xml version="1.0" encoding="iso-8859-1"?>
<!-- Generator: Adobe Illustrator 17.1.0, SVG Export Plug-In . SVG Version: 6.00 Build 0)  -->
<!DOCTYPE svg PUBLIC "-//W3C//DTD SVG 1.1//EN" "http://www.w3.org/Graphics/SVG/1.1/DTD/svg11.dtd">
<svg version="1.1" id="Capa_1" xmlns="http://www.w3.org/2000/svg" xmlns:xlink="http://www.w3.org/1999/xlink" x="0px" y="0px"
	 viewBox="0 0 200.386 200.386" style="enable-background:new 0 0 200.386 200.386;" xml:space="preserve">
<path d="M12.781,200.386c-3.415,0-6.626-1.33-9.04-3.745c-4.984-4.984-4.984-13.094,0-18.079l42.068-42.069
	c-24.756-33.508-21.965-81.11,8.367-111.442c33.402-33.401,87.753-33.402,121.155,0c33.402,33.403,33.402,87.752,0,121.155v0
	c-30.329,30.329-77.935,33.117-111.442,8.366L21.82,196.642C19.406,199.056,16.196,200.386,12.781,200.386z M49.183,141.606
	l-41.2,41.199c-2.645,2.645-2.645,6.949,0,9.594c1.282,1.281,2.985,1.987,4.798,1.987c1.812,0,3.516-0.706,4.796-1.987
	c0.001,0,0.001,0,0.001,0l41.199-41.2L49.183,141.606z M114.755,5.997c-20.402,0-40.804,7.766-56.336,23.297
	c-31.063,31.063-31.063,81.607,0,112.67c31.064,31.063,81.606,31.061,112.671,0l0,0c31.063-31.063,31.063-81.607,0-112.67
	C155.557,13.762,135.156,5.997,114.755,5.997z M114.754,161.279c-19.381,0-38.763-7.377-53.518-22.133
	c-29.511-29.51-29.511-77.526,0-107.036c29.512-29.511,77.528-29.51,107.036,0c29.511,29.51,29.511,77.526,0,107.036
	C153.517,153.902,134.136,161.279,114.754,161.279z M114.754,15.975c-17.845,0-35.689,6.793-49.275,20.378
	c-27.171,27.171-27.171,71.381,0,98.552c27.172,27.17,71.38,27.169,98.552,0c27.171-27.171,27.171-71.381,0-98.552
	C150.444,22.768,132.599,15.975,114.754,15.975z M156.543,46.841c-0.768,0-1.535-0.293-2.121-0.879
	c-21.874-21.873-57.463-21.871-79.335,0c-1.172,1.172-3.07,1.172-4.242,0c-1.172-1.171-1.172-3.071,0-4.242
	c11.729-11.729,27.322-18.188,43.909-18.188c16.588,0,32.182,6.459,43.91,18.188c1.172,1.171,1.172,3.071,0,4.242
	C158.078,46.548,157.31,46.841,156.543,46.841z"/>
<g>
</g>
<g>
</g>
<g>
</g>
<g>
</g>
<g>
</g>
<g>
</g>
<g>
</g>
<g>
</g>
<g>
</g>
<g>
</g>
<g>
</g>
<g>
</g>
<g>
</g>
<g>
</g>
<g>
</g>
</svg>
